<mxfile host="app.diagrams.net" modified="2023-07-24T05:19:07.152Z" agent="Mozilla/5.0 (Windows NT 10.0; Win64; x64) AppleWebKit/537.36 (KHTML, like Gecko) Chrome/114.0.0.0 Safari/537.36" etag="WA2qHJ4zA5atau3-JO5x" version="21.6.5" type="device">
  <diagram id="C5RBs43oDa-KdzZeNtuy" name="Page-1">
    <mxGraphModel dx="1173" dy="569" grid="1" gridSize="10" guides="1" tooltips="1" connect="1" arrows="1" fold="1" page="1" pageScale="1" pageWidth="827" pageHeight="1169" math="0" shadow="0">
      <root>
        <mxCell id="WIyWlLk6GJQsqaUBKTNV-0" />
        <mxCell id="WIyWlLk6GJQsqaUBKTNV-1" parent="WIyWlLk6GJQsqaUBKTNV-0" />
        <mxCell id="vgf3pwnDSPE7Sjgdm0pa-6" value="" style="edgeStyle=orthogonalEdgeStyle;rounded=0;orthogonalLoop=1;jettySize=auto;html=1;" parent="WIyWlLk6GJQsqaUBKTNV-1" source="vgf3pwnDSPE7Sjgdm0pa-4" target="vgf3pwnDSPE7Sjgdm0pa-5" edge="1">
          <mxGeometry relative="1" as="geometry" />
        </mxCell>
        <mxCell id="vgf3pwnDSPE7Sjgdm0pa-4" value="&lt;h2 style=&quot;font-size: 18px;&quot;&gt;Start&lt;/h2&gt;" style="rounded=1;whiteSpace=wrap;html=1;align=center;" parent="WIyWlLk6GJQsqaUBKTNV-1" vertex="1">
          <mxGeometry x="300" y="30" width="100" height="50" as="geometry" />
        </mxCell>
        <mxCell id="vgf3pwnDSPE7Sjgdm0pa-8" value="" style="edgeStyle=orthogonalEdgeStyle;rounded=0;orthogonalLoop=1;jettySize=auto;html=1;" parent="WIyWlLk6GJQsqaUBKTNV-1" source="vgf3pwnDSPE7Sjgdm0pa-5" edge="1">
          <mxGeometry relative="1" as="geometry">
            <mxPoint x="350" y="240" as="targetPoint" />
          </mxGeometry>
        </mxCell>
        <mxCell id="vgf3pwnDSPE7Sjgdm0pa-5" value="&lt;font style=&quot;font-size: 20px;&quot;&gt;Input Payment Detail.&lt;/font&gt;" style="rounded=1;whiteSpace=wrap;html=1;fillColor=#d5e8d4;strokeColor=#82b366;" parent="WIyWlLk6GJQsqaUBKTNV-1" vertex="1">
          <mxGeometry x="220" y="120" width="260" height="60" as="geometry" />
        </mxCell>
        <mxCell id="vgf3pwnDSPE7Sjgdm0pa-12" value="" style="edgeStyle=orthogonalEdgeStyle;rounded=0;orthogonalLoop=1;jettySize=auto;html=1;" parent="WIyWlLk6GJQsqaUBKTNV-1" source="vgf3pwnDSPE7Sjgdm0pa-10" target="vgf3pwnDSPE7Sjgdm0pa-11" edge="1">
          <mxGeometry relative="1" as="geometry" />
        </mxCell>
        <mxCell id="vgf3pwnDSPE7Sjgdm0pa-16" value="" style="edgeStyle=orthogonalEdgeStyle;rounded=0;orthogonalLoop=1;jettySize=auto;html=1;" parent="WIyWlLk6GJQsqaUBKTNV-1" source="vgf3pwnDSPE7Sjgdm0pa-10" target="vgf3pwnDSPE7Sjgdm0pa-15" edge="1">
          <mxGeometry relative="1" as="geometry" />
        </mxCell>
        <mxCell id="vgf3pwnDSPE7Sjgdm0pa-10" value="&lt;font style=&quot;font-size: 20px;&quot;&gt;Validate Payment details&amp;nbsp;&lt;/font&gt;" style="rhombus;whiteSpace=wrap;html=1;fillColor=#f8cecc;strokeColor=#b85450;" parent="WIyWlLk6GJQsqaUBKTNV-1" vertex="1">
          <mxGeometry x="200" y="240" width="300" height="180" as="geometry" />
        </mxCell>
        <mxCell id="vgf3pwnDSPE7Sjgdm0pa-13" style="edgeStyle=orthogonalEdgeStyle;rounded=0;orthogonalLoop=1;jettySize=auto;html=1;entryX=1;entryY=0.5;entryDx=0;entryDy=0;" parent="WIyWlLk6GJQsqaUBKTNV-1" source="vgf3pwnDSPE7Sjgdm0pa-11" target="vgf3pwnDSPE7Sjgdm0pa-5" edge="1">
          <mxGeometry relative="1" as="geometry">
            <Array as="points">
              <mxPoint x="680" y="150" />
            </Array>
          </mxGeometry>
        </mxCell>
        <mxCell id="vgf3pwnDSPE7Sjgdm0pa-11" value="&lt;font style=&quot;font-size: 20px;&quot;&gt;Re-Enter the card details&lt;/font&gt;" style="rounded=1;whiteSpace=wrap;html=1;fillColor=#dae8fc;strokeColor=#6c8ebf;" parent="WIyWlLk6GJQsqaUBKTNV-1" vertex="1">
          <mxGeometry x="590" y="300" width="180" height="60" as="geometry" />
        </mxCell>
        <mxCell id="vgf3pwnDSPE7Sjgdm0pa-20" value="" style="edgeStyle=orthogonalEdgeStyle;rounded=0;orthogonalLoop=1;jettySize=auto;html=1;" parent="WIyWlLk6GJQsqaUBKTNV-1" source="vgf3pwnDSPE7Sjgdm0pa-15" target="vgf3pwnDSPE7Sjgdm0pa-19" edge="1">
          <mxGeometry relative="1" as="geometry" />
        </mxCell>
        <mxCell id="ROH4AIOhr-HSJNkvXneb-30" value="" style="edgeStyle=orthogonalEdgeStyle;rounded=0;orthogonalLoop=1;jettySize=auto;html=1;" edge="1" parent="WIyWlLk6GJQsqaUBKTNV-1" source="vgf3pwnDSPE7Sjgdm0pa-15" target="ROH4AIOhr-HSJNkvXneb-29">
          <mxGeometry relative="1" as="geometry" />
        </mxCell>
        <mxCell id="vgf3pwnDSPE7Sjgdm0pa-15" value="&lt;font style=&quot;font-size: 20px;&quot;&gt;Process Payment&lt;/font&gt;" style="rhombus;whiteSpace=wrap;html=1;fillColor=#f8cecc;strokeColor=#b85450;" parent="WIyWlLk6GJQsqaUBKTNV-1" vertex="1">
          <mxGeometry x="235" y="455" width="230" height="130" as="geometry" />
        </mxCell>
        <mxCell id="vgf3pwnDSPE7Sjgdm0pa-22" value="" style="edgeStyle=orthogonalEdgeStyle;rounded=0;orthogonalLoop=1;jettySize=auto;html=1;" parent="WIyWlLk6GJQsqaUBKTNV-1" source="vgf3pwnDSPE7Sjgdm0pa-19" target="vgf3pwnDSPE7Sjgdm0pa-21" edge="1">
          <mxGeometry relative="1" as="geometry" />
        </mxCell>
        <mxCell id="vgf3pwnDSPE7Sjgdm0pa-19" value="&lt;font style=&quot;font-size: 20px;&quot;&gt;Connect to payment gateway&lt;/font&gt;" style="rounded=1;whiteSpace=wrap;html=1;fillColor=#dae8fc;strokeColor=#6c8ebf;" parent="WIyWlLk6GJQsqaUBKTNV-1" vertex="1">
          <mxGeometry x="195" y="620" width="310" height="60" as="geometry" />
        </mxCell>
        <mxCell id="vgf3pwnDSPE7Sjgdm0pa-24" value="" style="edgeStyle=orthogonalEdgeStyle;rounded=0;orthogonalLoop=1;jettySize=auto;html=1;" parent="WIyWlLk6GJQsqaUBKTNV-1" source="vgf3pwnDSPE7Sjgdm0pa-21" edge="1">
          <mxGeometry relative="1" as="geometry">
            <mxPoint x="350" y="820" as="targetPoint" />
          </mxGeometry>
        </mxCell>
        <mxCell id="vgf3pwnDSPE7Sjgdm0pa-21" value="&lt;font style=&quot;font-size: 20px;&quot;&gt;Authorize Payment&lt;/font&gt;" style="rounded=1;whiteSpace=wrap;html=1;fillColor=#dae8fc;strokeColor=#6c8ebf;" parent="WIyWlLk6GJQsqaUBKTNV-1" vertex="1">
          <mxGeometry x="195" y="720" width="310" height="60" as="geometry" />
        </mxCell>
        <mxCell id="vgf3pwnDSPE7Sjgdm0pa-29" value="" style="edgeStyle=orthogonalEdgeStyle;rounded=0;orthogonalLoop=1;jettySize=auto;html=1;" parent="WIyWlLk6GJQsqaUBKTNV-1" source="vgf3pwnDSPE7Sjgdm0pa-26" target="vgf3pwnDSPE7Sjgdm0pa-28" edge="1">
          <mxGeometry relative="1" as="geometry" />
        </mxCell>
        <mxCell id="vgf3pwnDSPE7Sjgdm0pa-26" value="&lt;font style=&quot;font-size: 20px;&quot;&gt;Process Payment&lt;/font&gt;" style="rounded=1;whiteSpace=wrap;html=1;fillColor=#dae8fc;strokeColor=#6c8ebf;" parent="WIyWlLk6GJQsqaUBKTNV-1" vertex="1">
          <mxGeometry x="195" y="1020" width="310" height="60" as="geometry" />
        </mxCell>
        <mxCell id="vgf3pwnDSPE7Sjgdm0pa-31" value="" style="edgeStyle=orthogonalEdgeStyle;rounded=0;orthogonalLoop=1;jettySize=auto;html=1;" parent="WIyWlLk6GJQsqaUBKTNV-1" source="vgf3pwnDSPE7Sjgdm0pa-28" target="vgf3pwnDSPE7Sjgdm0pa-30" edge="1">
          <mxGeometry relative="1" as="geometry" />
        </mxCell>
        <mxCell id="vgf3pwnDSPE7Sjgdm0pa-28" value="&lt;font style=&quot;font-size: 20px;&quot;&gt;Generate Receipt&lt;/font&gt;" style="rounded=1;whiteSpace=wrap;html=1;fillColor=#dae8fc;strokeColor=#6c8ebf;" parent="WIyWlLk6GJQsqaUBKTNV-1" vertex="1">
          <mxGeometry x="195" y="1110" width="310" height="60" as="geometry" />
        </mxCell>
        <mxCell id="vgf3pwnDSPE7Sjgdm0pa-30" value="&lt;font style=&quot;font-size: 20px;&quot;&gt;END&lt;/font&gt;" style="rounded=1;whiteSpace=wrap;html=1;" parent="WIyWlLk6GJQsqaUBKTNV-1" vertex="1">
          <mxGeometry x="290" y="1200" width="120" height="60" as="geometry" />
        </mxCell>
        <mxCell id="ROH4AIOhr-HSJNkvXneb-0" value="&lt;font style=&quot;font-size: 15px;&quot;&gt;Yes&lt;/font&gt;" style="text;html=1;strokeColor=none;fillColor=none;align=center;verticalAlign=middle;whiteSpace=wrap;rounded=0;" vertex="1" parent="WIyWlLk6GJQsqaUBKTNV-1">
          <mxGeometry x="340" y="80" width="100" height="50" as="geometry" />
        </mxCell>
        <mxCell id="ROH4AIOhr-HSJNkvXneb-1" value="&lt;font style=&quot;font-size: 15px;&quot;&gt;Yes&lt;/font&gt;" style="text;html=1;strokeColor=none;fillColor=none;align=center;verticalAlign=middle;whiteSpace=wrap;rounded=0;" vertex="1" parent="WIyWlLk6GJQsqaUBKTNV-1">
          <mxGeometry x="340" y="190" width="100" height="50" as="geometry" />
        </mxCell>
        <mxCell id="ROH4AIOhr-HSJNkvXneb-2" value="&lt;font style=&quot;font-size: 15px;&quot;&gt;Yes&lt;/font&gt;" style="text;html=1;strokeColor=none;fillColor=none;align=center;verticalAlign=middle;whiteSpace=wrap;rounded=0;" vertex="1" parent="WIyWlLk6GJQsqaUBKTNV-1">
          <mxGeometry x="330" y="410" width="100" height="50" as="geometry" />
        </mxCell>
        <mxCell id="ROH4AIOhr-HSJNkvXneb-3" value="&lt;font style=&quot;font-size: 15px;&quot;&gt;Yes&lt;/font&gt;" style="text;html=1;strokeColor=none;fillColor=none;align=center;verticalAlign=middle;whiteSpace=wrap;rounded=0;" vertex="1" parent="WIyWlLk6GJQsqaUBKTNV-1">
          <mxGeometry x="330" y="580" width="100" height="50" as="geometry" />
        </mxCell>
        <mxCell id="ROH4AIOhr-HSJNkvXneb-4" value="&lt;font style=&quot;font-size: 15px;&quot;&gt;Yes&lt;/font&gt;" style="text;html=1;strokeColor=none;fillColor=none;align=center;verticalAlign=middle;whiteSpace=wrap;rounded=0;" vertex="1" parent="WIyWlLk6GJQsqaUBKTNV-1">
          <mxGeometry x="330" y="680" width="100" height="50" as="geometry" />
        </mxCell>
        <mxCell id="ROH4AIOhr-HSJNkvXneb-5" value="&lt;font style=&quot;font-size: 15px;&quot;&gt;Yes&lt;/font&gt;" style="text;html=1;strokeColor=none;fillColor=none;align=center;verticalAlign=middle;whiteSpace=wrap;rounded=0;" vertex="1" parent="WIyWlLk6GJQsqaUBKTNV-1">
          <mxGeometry x="330" y="1160" width="100" height="50" as="geometry" />
        </mxCell>
        <mxCell id="ROH4AIOhr-HSJNkvXneb-6" value="&lt;font style=&quot;font-size: 15px;&quot;&gt;Yes&lt;/font&gt;" style="text;html=1;strokeColor=none;fillColor=none;align=center;verticalAlign=middle;whiteSpace=wrap;rounded=0;" vertex="1" parent="WIyWlLk6GJQsqaUBKTNV-1">
          <mxGeometry x="340" y="980" width="100" height="50" as="geometry" />
        </mxCell>
        <mxCell id="ROH4AIOhr-HSJNkvXneb-7" value="&lt;font style=&quot;font-size: 15px;&quot;&gt;Yes&lt;/font&gt;" style="text;html=1;strokeColor=none;fillColor=none;align=center;verticalAlign=middle;whiteSpace=wrap;rounded=0;" vertex="1" parent="WIyWlLk6GJQsqaUBKTNV-1">
          <mxGeometry x="330" y="770" width="100" height="50" as="geometry" />
        </mxCell>
        <mxCell id="ROH4AIOhr-HSJNkvXneb-8" value="&lt;font style=&quot;font-size: 15px;&quot;&gt;Yes&lt;/font&gt;" style="text;html=1;strokeColor=none;fillColor=none;align=center;verticalAlign=middle;whiteSpace=wrap;rounded=0;" vertex="1" parent="WIyWlLk6GJQsqaUBKTNV-1">
          <mxGeometry x="330" y="1070" width="100" height="50" as="geometry" />
        </mxCell>
        <mxCell id="ROH4AIOhr-HSJNkvXneb-10" value="&lt;font style=&quot;font-size: 14px;&quot;&gt;No&lt;/font&gt;" style="text;html=1;strokeColor=none;fillColor=none;align=center;verticalAlign=middle;whiteSpace=wrap;rounded=0;" vertex="1" parent="WIyWlLk6GJQsqaUBKTNV-1">
          <mxGeometry x="190" y="530" width="60" height="30" as="geometry" />
        </mxCell>
        <mxCell id="ROH4AIOhr-HSJNkvXneb-11" value="&lt;font style=&quot;font-size: 14px;&quot;&gt;No&lt;/font&gt;" style="text;html=1;strokeColor=none;fillColor=none;align=center;verticalAlign=middle;whiteSpace=wrap;rounded=0;" vertex="1" parent="WIyWlLk6GJQsqaUBKTNV-1">
          <mxGeometry x="540" y="350" width="60" height="30" as="geometry" />
        </mxCell>
        <mxCell id="ROH4AIOhr-HSJNkvXneb-12" value="&lt;font style=&quot;font-size: 15px;&quot;&gt;Yes&lt;/font&gt;" style="text;html=1;strokeColor=none;fillColor=none;align=center;verticalAlign=middle;whiteSpace=wrap;rounded=0;" vertex="1" parent="WIyWlLk6GJQsqaUBKTNV-1">
          <mxGeometry x="660" y="260" width="100" height="50" as="geometry" />
        </mxCell>
        <mxCell id="ROH4AIOhr-HSJNkvXneb-15" value="" style="edgeStyle=orthogonalEdgeStyle;rounded=0;orthogonalLoop=1;jettySize=auto;html=1;" edge="1" parent="WIyWlLk6GJQsqaUBKTNV-1" source="ROH4AIOhr-HSJNkvXneb-13" target="vgf3pwnDSPE7Sjgdm0pa-26">
          <mxGeometry relative="1" as="geometry" />
        </mxCell>
        <mxCell id="ROH4AIOhr-HSJNkvXneb-17" value="" style="edgeStyle=orthogonalEdgeStyle;rounded=0;orthogonalLoop=1;jettySize=auto;html=1;" edge="1" parent="WIyWlLk6GJQsqaUBKTNV-1" source="ROH4AIOhr-HSJNkvXneb-13" target="ROH4AIOhr-HSJNkvXneb-16">
          <mxGeometry relative="1" as="geometry" />
        </mxCell>
        <mxCell id="ROH4AIOhr-HSJNkvXneb-13" value="&lt;font style=&quot;font-size: 18px;&quot;&gt;Check Authorization Details&lt;/font&gt;" style="rhombus;whiteSpace=wrap;html=1;fillColor=#f8cecc;strokeColor=#b85450;" vertex="1" parent="WIyWlLk6GJQsqaUBKTNV-1">
          <mxGeometry x="180" y="820" width="340" height="150" as="geometry" />
        </mxCell>
        <mxCell id="ROH4AIOhr-HSJNkvXneb-18" style="edgeStyle=orthogonalEdgeStyle;rounded=0;orthogonalLoop=1;jettySize=auto;html=1;entryX=1;entryY=0.5;entryDx=0;entryDy=0;" edge="1" parent="WIyWlLk6GJQsqaUBKTNV-1" source="ROH4AIOhr-HSJNkvXneb-16" target="vgf3pwnDSPE7Sjgdm0pa-30">
          <mxGeometry relative="1" as="geometry">
            <Array as="points">
              <mxPoint x="685" y="1230" />
            </Array>
          </mxGeometry>
        </mxCell>
        <mxCell id="ROH4AIOhr-HSJNkvXneb-16" value="&lt;font style=&quot;font-size: 16px;&quot;&gt;Payment Declined&lt;/font&gt;" style="rounded=1;whiteSpace=wrap;html=1;fillColor=#dae8fc;strokeColor=#6c8ebf;" vertex="1" parent="WIyWlLk6GJQsqaUBKTNV-1">
          <mxGeometry x="580" y="865" width="210" height="60" as="geometry" />
        </mxCell>
        <mxCell id="ROH4AIOhr-HSJNkvXneb-19" value="&lt;font style=&quot;font-size: 16px;&quot;&gt;4&lt;br&gt;&lt;/font&gt;" style="text;html=1;strokeColor=none;fillColor=none;align=center;verticalAlign=middle;whiteSpace=wrap;rounded=0;" vertex="1" parent="WIyWlLk6GJQsqaUBKTNV-1">
          <mxGeometry x="300" y="425" width="60" height="30" as="geometry" />
        </mxCell>
        <mxCell id="ROH4AIOhr-HSJNkvXneb-20" value="&lt;font style=&quot;font-size: 16px;&quot;&gt;2&lt;/font&gt;" style="text;html=1;strokeColor=none;fillColor=none;align=center;verticalAlign=middle;whiteSpace=wrap;rounded=0;" vertex="1" parent="WIyWlLk6GJQsqaUBKTNV-1">
          <mxGeometry x="300" y="190" width="60" height="30" as="geometry" />
        </mxCell>
        <mxCell id="ROH4AIOhr-HSJNkvXneb-21" value="&lt;font style=&quot;font-size: 16px;&quot;&gt;1&lt;/font&gt;" style="text;html=1;strokeColor=none;fillColor=none;align=center;verticalAlign=middle;whiteSpace=wrap;rounded=0;" vertex="1" parent="WIyWlLk6GJQsqaUBKTNV-1">
          <mxGeometry x="300" y="90" width="60" height="30" as="geometry" />
        </mxCell>
        <mxCell id="ROH4AIOhr-HSJNkvXneb-22" value="&lt;font style=&quot;font-size: 16px;&quot;&gt;9&lt;/font&gt;" style="text;html=1;strokeColor=none;fillColor=none;align=center;verticalAlign=middle;whiteSpace=wrap;rounded=0;" vertex="1" parent="WIyWlLk6GJQsqaUBKTNV-1">
          <mxGeometry x="530" y="900" width="60" height="30" as="geometry" />
        </mxCell>
        <mxCell id="ROH4AIOhr-HSJNkvXneb-23" value="&lt;font style=&quot;font-size: 16px;&quot;&gt;3&lt;/font&gt;" style="text;html=1;strokeColor=none;fillColor=none;align=center;verticalAlign=middle;whiteSpace=wrap;rounded=0;" vertex="1" parent="WIyWlLk6GJQsqaUBKTNV-1">
          <mxGeometry x="540" y="300" width="60" height="30" as="geometry" />
        </mxCell>
        <mxCell id="ROH4AIOhr-HSJNkvXneb-24" value="&lt;font style=&quot;font-size: 16px;&quot;&gt;5&lt;/font&gt;" style="text;html=1;strokeColor=none;fillColor=none;align=center;verticalAlign=middle;whiteSpace=wrap;rounded=0;" vertex="1" parent="WIyWlLk6GJQsqaUBKTNV-1">
          <mxGeometry x="210" y="480" width="60" height="30" as="geometry" />
        </mxCell>
        <mxCell id="ROH4AIOhr-HSJNkvXneb-25" value="&lt;font style=&quot;font-size: 16px;&quot;&gt;6&lt;/font&gt;" style="text;html=1;strokeColor=none;fillColor=none;align=center;verticalAlign=middle;whiteSpace=wrap;rounded=0;" vertex="1" parent="WIyWlLk6GJQsqaUBKTNV-1">
          <mxGeometry x="290" y="590" width="60" height="30" as="geometry" />
        </mxCell>
        <mxCell id="ROH4AIOhr-HSJNkvXneb-26" value="&lt;font style=&quot;font-size: 16px;&quot;&gt;7&lt;/font&gt;" style="text;html=1;strokeColor=none;fillColor=none;align=center;verticalAlign=middle;whiteSpace=wrap;rounded=0;" vertex="1" parent="WIyWlLk6GJQsqaUBKTNV-1">
          <mxGeometry x="290" y="690" width="60" height="30" as="geometry" />
        </mxCell>
        <mxCell id="ROH4AIOhr-HSJNkvXneb-27" value="&lt;font style=&quot;font-size: 16px;&quot;&gt;8&lt;/font&gt;" style="text;html=1;strokeColor=none;fillColor=none;align=center;verticalAlign=middle;whiteSpace=wrap;rounded=0;" vertex="1" parent="WIyWlLk6GJQsqaUBKTNV-1">
          <mxGeometry x="290" y="790" width="60" height="30" as="geometry" />
        </mxCell>
        <mxCell id="ROH4AIOhr-HSJNkvXneb-32" style="edgeStyle=orthogonalEdgeStyle;rounded=0;orthogonalLoop=1;jettySize=auto;html=1;entryX=0;entryY=0.5;entryDx=0;entryDy=0;" edge="1" parent="WIyWlLk6GJQsqaUBKTNV-1" source="ROH4AIOhr-HSJNkvXneb-29" target="vgf3pwnDSPE7Sjgdm0pa-30">
          <mxGeometry relative="1" as="geometry">
            <Array as="points">
              <mxPoint x="60" y="1230" />
            </Array>
          </mxGeometry>
        </mxCell>
        <mxCell id="ROH4AIOhr-HSJNkvXneb-29" value="&lt;font style=&quot;font-size: 16px;&quot;&gt;Insufficient Balance&lt;/font&gt;" style="rounded=1;whiteSpace=wrap;html=1;fillColor=#dae8fc;strokeColor=#6c8ebf;" vertex="1" parent="WIyWlLk6GJQsqaUBKTNV-1">
          <mxGeometry x="20" y="490" width="140" height="60" as="geometry" />
        </mxCell>
        <mxCell id="ROH4AIOhr-HSJNkvXneb-36" value="&lt;font style=&quot;font-size: 14px;&quot;&gt;No&lt;/font&gt;" style="text;html=1;strokeColor=none;fillColor=none;align=center;verticalAlign=middle;whiteSpace=wrap;rounded=0;" vertex="1" parent="WIyWlLk6GJQsqaUBKTNV-1">
          <mxGeometry x="530" y="850" width="60" height="30" as="geometry" />
        </mxCell>
        <mxCell id="ROH4AIOhr-HSJNkvXneb-37" value="&lt;font style=&quot;font-size: 16px;&quot;&gt;10&lt;/font&gt;" style="text;html=1;strokeColor=none;fillColor=none;align=center;verticalAlign=middle;whiteSpace=wrap;rounded=0;" vertex="1" parent="WIyWlLk6GJQsqaUBKTNV-1">
          <mxGeometry x="300" y="980" width="60" height="30" as="geometry" />
        </mxCell>
        <mxCell id="ROH4AIOhr-HSJNkvXneb-38" value="&lt;font style=&quot;font-size: 16px;&quot;&gt;11&lt;br&gt;&lt;/font&gt;" style="text;html=1;strokeColor=none;fillColor=none;align=center;verticalAlign=middle;whiteSpace=wrap;rounded=0;" vertex="1" parent="WIyWlLk6GJQsqaUBKTNV-1">
          <mxGeometry x="300" y="1080" width="60" height="30" as="geometry" />
        </mxCell>
        <mxCell id="ROH4AIOhr-HSJNkvXneb-39" value="&lt;font style=&quot;font-size: 16px;&quot;&gt;12&lt;br&gt;&lt;/font&gt;" style="text;html=1;strokeColor=none;fillColor=none;align=center;verticalAlign=middle;whiteSpace=wrap;rounded=0;" vertex="1" parent="WIyWlLk6GJQsqaUBKTNV-1">
          <mxGeometry x="300" y="1169" width="60" height="30" as="geometry" />
        </mxCell>
      </root>
    </mxGraphModel>
  </diagram>
</mxfile>
